<?xml version="1.0" standalone="yes"?><svg xmlns:dc="http://purl.org/dc/elements/1.1/" xmlns:cc="http://creativecommons.org/ns#" xmlns:rdf="http://www.w3.org/1999/02/22-rdf-syntax-ns#" xmlns:svg="http://www.w3.org/2000/svg" xmlns="http://www.w3.org/2000/svg" xmlns:sodipodi="http://sodipodi.sourceforge.net/DTD/sodipodi-0.dtd" xmlns:inkscape="http://www.inkscape.org/namespaces/inkscape" version="1.1" x="0px" y="0px" viewBox="0 0 100 125" style="zoom: 1;"><g transform="translate(0,-952.36218)"><path style="font-size:medium;font-style:normal;font-variant:normal;font-weight:normal;font-stretch:normal;text-indent:0;text-align:start;text-decoration:none;line-height:normal;letter-spacing:normal;word-spacing:normal;text-transform:none;direction:ltr;block-progression:tb;writing-mode:lr-tb;text-anchor:start;baseline-shift:baseline;opacity:1;color:#000000;fill:#000000;fill-opacity:1;stroke:none;stroke-width:4;marker:none;visibility:visible;display:inline;overflow:visible;enable-background:accumulate;font-family:Sans;-inkscape-font-specification:Sans" d="M 22 6 C 13.170596 6 6 13.1706 6 22 L 6 78 C 6 86.8294 13.170596 94 22 94 L 78 94 C 86.829404 94 94 86.8294 94 78 L 94 22 C 94 13.1706 86.829404 6 78 6 L 22 6 z M 22 10 L 78 10 C 84.682593 10 90 15.31741 90 22 L 90 78 C 90 84.6826 84.682593 90 78 90 L 22 90 C 15.317407 90 10 84.6826 10 78 L 10 22 C 10 15.31741 15.317407 10 22 10 z M 50 20 C 33.455147 20 20 33.45513 20 50 C 20 66.5448 33.455147 80 50 80 C 66.544853 80 80 66.5448 80 50 C 80 33.45513 66.544853 20 50 20 z M 48 24.0625 L 48 33 A 2.0002 2.0002 0 1 0 52 33 L 52 24.0625 C 65.444135 25.081888 76 36.290718 76 50 C 76 63.709272 65.444135 74.918113 52 75.9375 L 52 67 A 2.0002 2.0002 0 0 0 49.78125 64.96875 A 2.0002 2.0002 0 0 0 48 67 L 48 75.9375 C 34.555865 74.918113 24 63.709272 24 50 C 24 36.290718 34.555865 25.081888 48 24.0625 z M 37 43 C 33.157696 43 30 46.15768 30 50 C 30 53.8423 33.157696 57 37 57 C 40.842304 57 44 53.8423 44 50 C 44 46.15768 40.842304 43 37 43 z M 63 43 C 59.157696 43 56 46.15768 56 50 C 56 53.8423 59.157696 57 63 57 C 66.842304 57 70 53.8423 70 50 C 70 46.15768 66.842304 43 63 43 z M 37 47 C 38.680543 47 40 48.3194 40 50 C 40 51.6805 38.680543 53 37 53 C 35.319457 53 34 51.6805 34 50 C 34 48.3194 35.319457 47 37 47 z M 63 47 C 64.680543 47 66 48.3194 66 50 C 66 51.6805 64.680543 53 63 53 C 61.319457 53 60 51.6805 60 50 C 60 48.3194 61.319457 47 63 47 z" transform="translate(0,952.36218)"></path></g></svg>