<svg id="svg" version="1.1" xmlns="http://www.w3.org/2000/svg" xmlns:xlink="http://www.w3.org/1999/xlink" width="400" height="82.84023668639054" viewBox="0, 0, 400,82.84023668639054"><g id="svgg"><path id="path0" d="M308.333 0.333 C 308.333 0.624,308.215 0.669,307.417 0.688 C 306.912 0.699,306.406 0.718,306.292 0.729 C 306.172 0.741,306.084 0.980,306.085 1.292 C 306.087 1.850,305.715 1.974,304.440 1.839 C 304.270 1.821,304.175 1.879,304.230 1.968 C 304.285 2.056,304.199 2.119,304.040 2.106 C 303.823 2.089,303.758 2.198,303.781 2.542 C 303.807 2.920,303.742 3.004,303.406 3.021 C 303.183 3.032,302.925 3.060,302.833 3.083 C 302.742 3.106,302.592 3.134,302.500 3.146 C 302.408 3.157,302.333 3.242,302.333 3.333 C 302.333 3.754,301.625 4.183,300.871 4.220 C 300.143 4.255,300.087 4.290,300.053 4.732 C 300.006 5.352,300.029 5.339,298.931 5.368 C 297.952 5.393,297.750 5.515,297.750 6.080 C 297.750 6.353,297.592 6.433,296.847 6.541 C 296.351 6.613,295.853 6.748,295.740 6.841 C 295.464 7.071,295.300 7.706,295.557 7.552 C 295.681 7.478,295.675 7.529,295.540 7.695 C 295.237 8.070,295.240 48.756,295.543 48.944 C 296.419 49.485,299.949 48.960,299.780 48.314 C 299.693 47.982,299.972 47.833,300.680 47.833 C 301.125 47.833,301.167 47.783,301.167 47.250 L 301.167 46.667 302.208 46.647 C 302.781 46.636,303.306 46.636,303.375 46.647 C 303.444 46.658,303.500 46.404,303.500 46.083 C 303.500 45.512,303.514 45.500,304.177 45.500 C 304.626 45.500,304.815 45.438,304.740 45.317 C 304.663 45.192,304.743 45.196,304.991 45.328 C 305.382 45.538,305.860 45.310,305.816 44.936 C 305.761 44.471,305.877 44.364,306.500 44.305 L 307.167 44.241 307.167 47.774 C 307.167 51.585,307.120 51.973,306.703 51.629 C 306.498 51.459,306.432 51.459,306.375 51.626 C 306.337 51.741,306.236 51.793,306.152 51.741 C 305.928 51.602,305.967 51.898,306.208 52.158 C 306.375 52.337,306.375 52.359,306.208 52.265 C 306.080 52.192,306.000 52.247,306.000 52.407 C 306.000 52.794,305.530 52.722,304.968 52.249 C 304.695 52.019,304.392 51.881,304.293 51.941 C 304.187 52.007,304.164 51.973,304.236 51.856 C 304.302 51.749,304.438 51.712,304.537 51.773 C 304.645 51.840,304.670 51.807,304.599 51.692 C 304.440 51.435,304.001 51.446,303.997 51.708 C 303.996 51.864,303.959 51.860,303.853 51.693 C 303.776 51.571,303.495 51.485,303.231 51.503 C 302.966 51.521,302.055 51.527,301.205 51.518 L 299.660 51.500 299.764 51.086 C 299.897 50.557,299.380 50.333,298.026 50.333 C 297.101 50.333,296.429 49.957,296.419 49.433 C 296.418 49.351,296.229 49.256,296.000 49.223 C 295.283 49.119,295.167 49.024,295.167 48.541 C 295.167 48.132,295.098 48.066,294.634 48.030 C 293.992 47.981,294.037 48.021,293.957 47.426 C 293.905 47.036,293.797 46.929,293.407 46.876 C 292.820 46.798,292.872 46.850,292.775 46.247 C 292.730 45.974,292.688 45.722,292.680 45.688 C 292.673 45.654,292.540 45.729,292.385 45.855 C 292.193 46.010,292.143 46.017,292.228 45.875 C 292.312 45.735,292.240 45.667,292.010 45.667 C 291.694 45.667,291.544 45.227,291.651 44.613 C 291.664 44.537,291.603 44.520,291.516 44.574 C 291.428 44.628,291.309 44.596,291.252 44.503 C 291.194 44.410,291.001 44.333,290.823 44.333 C 290.542 44.333,290.500 44.213,290.500 43.407 C 290.500 42.839,290.436 42.520,290.335 42.582 C 290.239 42.642,290.214 42.571,290.275 42.413 C 290.342 42.236,290.298 42.155,290.148 42.180 C 289.571 42.277,289.333 41.976,289.333 41.149 C 289.333 40.609,289.263 40.332,289.125 40.331 C 288.986 40.329,288.999 40.276,289.165 40.171 C 289.368 40.043,289.374 39.974,289.200 39.800 C 289.026 39.626,288.957 39.632,288.829 39.835 C 288.724 40.001,288.671 40.014,288.669 39.875 C 288.668 39.760,288.557 39.667,288.422 39.667 C 288.227 39.667,288.169 39.326,288.131 37.958 C 288.049 35.003,288.174 30.167,288.333 30.167 C 288.903 30.167,289.288 29.344,289.317 28.064 C 289.351 26.613,289.342 26.637,289.870 26.582 C 290.079 26.560,290.311 26.533,290.385 26.521 C 290.460 26.510,290.508 26.369,290.491 26.208 C 290.416 25.469,290.503 25.199,290.792 25.268 C 291.263 25.381,291.519 25.095,291.619 24.346 C 291.691 23.810,291.847 23.537,292.274 23.197 L 292.833 22.750 292.833 15.282 C 292.833 10.345,292.777 7.849,292.667 7.917 C 292.575 7.973,292.500 7.948,292.500 7.859 C 292.500 7.771,292.119 7.716,291.653 7.737 C 290.792 7.776,290.508 7.975,290.503 8.542 C 290.501 8.729,290.366 8.837,290.125 8.845 C 289.919 8.851,289.525 8.893,289.250 8.939 C 288.975 8.984,288.660 9.029,288.549 9.038 C 288.438 9.048,288.387 9.118,288.434 9.194 C 288.481 9.271,288.440 9.333,288.343 9.333 C 288.096 9.333,288.122 9.788,288.375 9.890 C 288.490 9.936,288.396 9.981,288.167 9.989 C 287.281 10.022,287.000 10.186,287.000 10.668 C 287.000 11.138,286.751 11.333,286.153 11.333 C 285.977 11.333,285.833 11.433,285.833 11.554 C 285.833 11.820,285.140 12.500,284.870 12.500 C 284.593 12.500,282.333 14.800,282.333 15.081 C 282.333 15.211,282.030 15.561,281.659 15.859 C 281.141 16.275,280.996 16.500,281.034 16.826 C 281.075 17.181,281.023 17.242,280.708 17.198 C 280.484 17.167,280.332 17.234,280.331 17.365 C 280.329 17.524,280.285 17.516,280.167 17.333 C 279.989 17.058,279.978 17.092,279.909 18.141 C 279.862 18.866,279.323 19.690,278.944 19.618 C 278.843 19.598,278.740 19.943,278.706 20.415 C 278.673 20.872,278.538 21.366,278.406 21.512 C 278.274 21.658,278.222 21.834,278.291 21.904 C 278.360 21.974,278.304 22.016,278.167 21.996 C 277.613 21.917,277.552 22.023,277.516 23.121 C 277.475 24.389,277.504 24.309,277.073 24.376 C 276.546 24.458,276.312 24.676,276.342 25.058 C 276.472 26.709,276.322 27.981,275.985 28.088 C 275.254 28.320,275.178 28.943,275.176 34.648 C 275.176 37.592,275.240 40.000,275.319 40.000 C 275.398 40.000,275.453 40.131,275.440 40.292 C 275.424 40.496,275.524 40.572,275.776 40.546 C 276.256 40.497,276.312 40.703,276.346 42.659 C 276.361 43.580,276.442 44.333,276.524 44.333 C 276.606 44.333,276.625 44.524,276.567 44.757 C 276.476 45.120,276.535 45.209,276.980 45.377 C 277.478 45.565,277.645 46.247,277.486 47.440 C 277.462 47.618,277.895 47.828,278.292 47.831 C 278.662 47.833,278.781 48.306,278.678 49.360 C 278.663 49.513,278.731 49.686,278.828 49.747 C 278.926 49.807,278.961 49.928,278.907 50.016 C 278.853 50.103,278.870 50.165,278.946 50.153 C 279.536 50.058,279.929 50.483,279.846 51.125 C 279.831 51.240,279.892 51.333,279.981 51.333 C 280.071 51.333,280.192 51.484,280.250 51.667 C 280.309 51.851,280.535 52.095,280.753 52.209 C 280.971 52.323,281.153 52.473,281.158 52.542 C 281.163 52.610,281.167 52.784,281.167 52.927 C 281.167 53.086,281.247 53.141,281.375 53.069 C 281.542 52.975,281.542 52.996,281.375 53.176 C 281.126 53.443,281.097 53.729,281.333 53.583 C 281.425 53.527,281.500 53.560,281.500 53.657 C 281.500 53.754,281.612 53.833,281.750 53.833 C 281.887 53.833,282.000 53.754,282.000 53.657 C 282.000 53.560,282.075 53.527,282.167 53.583 C 282.258 53.640,282.334 53.888,282.336 54.135 C 282.338 54.594,282.537 55.040,282.727 55.014 C 283.378 54.927,283.500 55.017,283.500 55.583 C 283.500 56.139,283.528 56.167,284.083 56.167 C 284.639 56.167,284.667 56.194,284.667 56.750 C 284.667 57.306,284.694 57.333,285.250 57.333 C 285.833 57.333,285.870 57.380,285.877 58.113 C 285.879 58.400,285.976 58.474,286.333 58.464 C 286.948 58.446,287.200 58.632,287.079 59.014 C 287.020 59.200,287.056 59.333,287.165 59.333 C 287.269 59.333,287.304 59.413,287.243 59.511 C 287.183 59.609,287.234 59.669,287.358 59.644 C 287.905 59.535,289.334 59.854,289.354 60.089 C 289.415 60.803,289.465 60.846,290.348 60.931 C 290.737 60.968,291.181 61.112,291.333 61.250 C 291.486 61.388,291.673 61.444,291.749 61.375 C 291.825 61.306,291.831 61.347,291.762 61.466 C 291.519 61.888,291.984 62.135,293.012 62.128 C 294.144 62.120,294.114 62.106,294.192 62.667 C 294.275 63.260,294.370 63.293,296.063 63.319 C 296.899 63.332,297.608 63.416,297.639 63.506 C 297.670 63.595,297.751 63.635,297.818 63.593 C 297.886 63.551,297.936 63.682,297.929 63.883 C 297.919 64.177,298.008 64.249,298.375 64.243 C 298.627 64.240,298.833 64.291,298.833 64.358 C 298.833 64.424,300.685 64.486,302.949 64.494 C 305.213 64.503,307.087 64.531,307.113 64.557 C 307.139 64.584,307.165 68.286,307.170 72.784 L 307.179 80.963 308.251 80.963 C 309.499 80.963,309.449 81.042,309.479 79.027 C 309.501 77.467,309.563 77.278,310.004 77.418 C 310.321 77.519,310.708 77.045,310.654 76.623 C 310.639 76.510,310.636 75.578,310.647 74.552 L 310.667 72.688 311.208 72.636 L 311.750 72.583 311.801 70.338 C 311.859 67.800,311.807 67.995,312.439 67.947 L 312.917 67.910 312.969 65.667 C 313.030 63.006,312.785 63.353,314.633 63.312 C 315.476 63.293,316.167 63.211,316.167 63.129 C 316.167 63.047,316.234 63.022,316.317 63.073 C 316.399 63.124,316.451 62.941,316.432 62.666 C 316.394 62.121,316.375 62.128,317.862 62.141 C 318.558 62.147,318.688 62.086,319.079 61.574 C 319.400 61.154,319.646 61.000,319.998 61.000 C 320.654 61.000,321.354 60.714,321.321 60.460 C 321.254 59.947,321.381 59.838,322.163 59.735 C 322.705 59.663,322.957 59.560,322.889 59.437 C 322.830 59.332,322.883 59.342,323.009 59.458 C 323.277 59.707,323.563 59.736,323.417 59.500 C 323.360 59.408,323.393 59.333,323.490 59.333 C 323.587 59.333,323.667 59.221,323.667 59.083 C 323.667 58.946,323.587 58.833,323.490 58.833 C 323.393 58.833,323.360 58.758,323.417 58.667 C 323.473 58.575,323.815 58.500,324.177 58.500 C 324.538 58.500,324.824 58.444,324.814 58.375 C 324.691 57.601,324.846 57.333,325.417 57.333 C 325.972 57.333,326.000 57.306,326.000 56.750 C 326.000 56.179,326.267 56.025,327.042 56.147 C 327.110 56.158,327.167 55.904,327.167 55.583 C 327.167 55.118,327.234 54.996,327.500 54.979 C 327.683 54.968,327.927 54.949,328.042 54.938 C 328.158 54.926,328.273 54.636,328.302 54.284 C 328.345 53.762,328.407 53.668,328.654 53.746 C 329.154 53.905,329.449 53.682,329.464 53.134 C 329.474 52.783,329.642 52.469,329.990 52.151 C 330.533 51.655,330.899 50.911,330.768 50.570 C 330.701 50.394,331.369 50.072,331.681 50.130 C 331.734 50.140,331.792 50.059,331.809 49.949 C 331.909 49.308,331.975 48.694,331.986 48.292 C 331.997 47.932,332.081 47.833,332.375 47.831 C 332.973 47.827,333.141 47.625,333.137 46.915 C 333.128 45.593,333.152 45.510,333.577 45.403 C 333.996 45.298,334.272 44.806,334.084 44.501 C 334.027 44.409,334.063 44.333,334.164 44.333 C 334.265 44.333,334.336 44.240,334.321 44.125 C 334.174 42.997,334.360 40.475,334.583 40.560 C 335.035 40.734,335.367 40.488,335.259 40.061 C 335.205 39.844,335.231 39.667,335.318 39.667 C 335.580 39.667,335.559 29.218,335.297 29.112 C 335.132 29.046,335.131 29.023,335.292 29.013 C 335.534 28.998,335.579 28.500,335.339 28.500 C 335.250 28.500,335.225 28.374,335.284 28.221 C 335.366 28.007,335.324 27.968,335.104 28.052 C 334.932 28.118,334.857 28.096,334.918 27.998 C 334.974 27.907,334.865 27.833,334.677 27.833 C 334.363 27.833,334.332 27.728,334.316 26.625 C 334.306 25.960,334.281 25.304,334.261 25.167 C 334.240 25.029,334.211 24.795,334.195 24.646 C 334.177 24.474,334.011 24.375,333.743 24.375 C 333.182 24.375,333.192 24.396,333.149 23.202 C 333.124 22.507,333.027 22.094,332.857 21.956 C 332.655 21.792,332.628 21.792,332.727 21.956 C 332.812 22.098,332.767 22.131,332.585 22.061 C 332.439 22.005,332.360 21.918,332.410 21.868 C 332.460 21.818,332.388 21.652,332.250 21.500 C 332.111 21.347,331.969 20.891,331.932 20.486 C 331.896 20.081,331.859 19.703,331.850 19.646 C 331.841 19.589,331.643 19.542,331.410 19.542 C 330.848 19.542,330.845 19.536,330.738 18.410 C 330.636 17.329,330.567 17.146,330.279 17.182 C 329.636 17.261,329.500 17.157,329.500 16.583 C 329.500 16.028,329.472 16.000,328.917 16.000 C 328.362 16.000,328.333 15.971,328.333 15.422 C 328.333 14.858,327.425 13.667,326.994 13.667 C 326.906 13.667,326.833 13.555,326.833 13.418 C 326.833 13.282,326.572 13.000,326.252 12.793 C 325.932 12.586,325.670 12.322,325.669 12.206 C 325.668 12.091,325.245 11.726,324.730 11.396 C 324.214 11.067,323.756 10.655,323.710 10.482 C 323.625 10.156,323.540 10.119,322.833 10.096 C 322.575 10.088,322.435 9.997,322.464 9.858 C 322.535 9.518,322.329 8.983,322.166 9.084 C 322.087 9.132,321.976 9.096,321.918 9.003 C 321.861 8.910,321.401 8.833,320.897 8.833 C 320.275 8.833,320.017 8.775,320.093 8.651 C 320.406 8.145,319.826 7.720,318.803 7.705 C 317.643 7.688,317.708 7.722,317.622 7.080 C 317.580 6.770,317.444 6.562,317.258 6.526 C 317.049 6.485,316.998 6.534,317.088 6.692 C 317.191 6.873,317.172 6.876,316.991 6.708 C 316.851 6.579,316.276 6.500,315.467 6.500 L 314.167 6.500 314.167 3.771 C 314.167 2.270,314.120 0.807,314.063 0.521 L 313.958 0.000 311.146 0.000 C 308.444 0.000,308.333 0.013,308.333 0.333 M325.422 12.467 C 325.310 12.579,324.833 12.163,324.833 11.954 C 324.833 11.859,324.984 11.918,325.168 12.084 C 325.352 12.251,325.466 12.423,325.422 12.467 M284.503 13.413 C 284.387 13.552,284.215 13.667,284.120 13.667 C 284.026 13.667,284.085 13.516,284.251 13.332 C 284.596 12.951,284.825 13.025,284.503 13.413 M326.588 13.634 C 326.476 13.746,326.000 13.330,326.000 13.120 C 326.000 13.026,326.150 13.085,326.334 13.251 C 326.518 13.417,326.633 13.590,326.588 13.634 M283.337 14.579 C 283.221 14.719,283.048 14.833,282.954 14.833 C 282.859 14.833,282.918 14.683,283.084 14.499 C 283.429 14.118,283.659 14.191,283.337 14.579 M327.755 14.801 C 327.643 14.912,327.167 14.497,327.167 14.287 C 327.167 14.192,327.317 14.251,327.501 14.418 C 327.685 14.584,327.799 14.756,327.755 14.801 M314.372 20.305 C 314.301 20.491,314.351 20.529,314.563 20.448 C 314.721 20.387,314.809 20.404,314.759 20.485 C 314.709 20.567,314.934 20.633,315.261 20.633 C 315.587 20.633,315.986 20.753,316.149 20.900 C 316.311 21.047,316.481 21.130,316.527 21.084 C 316.572 21.039,316.604 21.170,316.596 21.376 C 316.585 21.691,316.682 21.758,317.208 21.802 C 317.808 21.851,317.833 21.879,317.836 22.468 C 317.839 23.252,318.165 23.900,318.588 23.963 C 318.888 24.008,318.891 23.997,318.627 23.832 C 318.468 23.733,318.251 23.487,318.145 23.285 C 318.002 23.009,318.073 23.043,318.429 23.417 C 318.690 23.692,318.925 24.048,318.952 24.208 C 318.978 24.369,319.026 24.669,319.058 24.875 C 319.100 25.153,319.262 25.277,319.683 25.353 C 320.054 25.420,319.716 25.471,318.708 25.499 C 317.860 25.522,317.079 25.551,316.972 25.563 C 316.865 25.574,316.748 25.807,316.711 26.080 C 316.629 26.697,316.733 26.631,315.703 26.721 C 314.735 26.806,314.389 27.009,314.283 27.554 C 314.244 27.753,314.203 26.042,314.192 23.750 C 314.180 21.252,314.231 19.677,314.320 19.818 C 314.402 19.947,314.426 20.167,314.372 20.305 M291.033 24.533 C 290.738 24.829,290.790 25.052,291.125 24.925 C 291.359 24.836,291.375 24.855,291.208 25.023 C 290.890 25.344,290.536 24.942,290.827 24.590 C 290.945 24.449,291.084 24.333,291.137 24.333 C 291.190 24.333,291.143 24.423,291.033 24.533 M322.461 34.889 C 322.500 39.066,322.473 39.667,322.253 39.667 C 322.114 39.667,321.999 39.760,321.997 39.875 C 321.996 40.026,321.955 40.020,321.849 39.854 C 321.623 39.496,321.360 39.780,321.366 40.377 C 321.378 41.608,321.323 42.000,321.138 42.000 C 321.031 42.000,320.793 42.131,320.609 42.292 C 320.368 42.503,320.314 42.514,320.412 42.333 C 320.525 42.128,320.508 42.121,320.320 42.296 C 320.136 42.467,320.132 42.572,320.297 42.837 C 320.420 43.034,320.435 43.167,320.335 43.167 C 320.242 43.167,320.176 43.223,320.186 43.292 C 320.281 43.892,320.136 44.333,319.843 44.333 C 319.665 44.333,319.473 44.410,319.415 44.503 C 319.357 44.596,319.256 44.639,319.190 44.598 C 319.123 44.557,319.051 44.758,319.029 45.044 C 318.982 45.673,319.023 45.627,318.414 45.725 C 318.140 45.770,317.889 45.812,317.855 45.820 C 317.820 45.827,317.895 45.960,318.021 46.115 C 318.151 46.275,318.165 46.346,318.054 46.280 C 317.931 46.206,317.830 46.304,317.785 46.539 C 317.745 46.747,317.702 46.335,317.689 45.625 C 317.669 44.443,317.695 44.332,318.000 44.313 C 318.534 44.279,318.632 44.256,318.748 44.140 C 318.854 44.035,318.957 42.439,318.986 40.474 C 318.998 39.664,319.041 39.541,319.292 39.601 C 320.055 39.784,320.127 39.444,320.160 35.490 C 320.166 34.751,320.180 34.732,320.666 34.765 C 320.941 34.785,321.124 34.733,321.073 34.650 C 321.022 34.568,321.065 34.500,321.167 34.500 C 321.270 34.500,321.339 34.294,321.319 34.042 C 321.090 31.115,321.373 29.913,322.250 30.079 C 322.355 30.099,322.433 31.871,322.461 34.889 M280.976 51.648 C 281.113 51.735,281.137 51.832,281.037 51.894 C 280.946 51.950,280.778 51.885,280.665 51.748 C 280.440 51.477,280.617 51.421,280.976 51.648 M330.167 51.558 C 330.167 51.589,330.006 51.758,329.809 51.933 C 329.453 52.248,329.453 52.248,329.648 51.875 C 329.811 51.565,330.167 51.347,330.167 51.558 " stroke="none" fill="#04bc74" fill-rule="evenodd"></path><path id="path1" d="M1.944 6.611 C 1.883 6.672,1.833 6.935,1.833 7.194 C 1.833 7.623,1.779 7.667,1.250 7.667 C 0.778 7.667,0.667 7.730,0.667 8.000 C 0.667 8.222,0.556 8.333,0.333 8.333 C 0.001 8.333,0.000 8.444,0.000 35.146 L 0.000 61.958 0.521 62.063 C 0.807 62.120,1.215 62.167,1.427 62.167 C 1.740 62.167,1.822 62.268,1.864 62.708 L 1.917 63.250 15.945 63.293 L 29.974 63.335 30.594 62.751 C 31.108 62.266,31.344 62.164,31.982 62.150 C 33.202 62.124,33.576 61.966,33.636 61.452 C 33.680 61.074,33.770 61.000,34.183 61.000 C 34.491 61.000,34.717 60.895,34.784 60.721 C 34.980 60.210,35.519 59.809,36.138 59.714 C 36.914 59.595,37.167 59.394,37.167 58.896 C 37.167 58.590,37.257 58.500,37.563 58.500 C 38.120 58.500,38.307 58.203,38.435 57.114 C 38.545 56.172,38.549 56.167,39.106 56.167 C 39.636 56.167,39.667 56.134,39.667 55.583 C 39.667 55.118,39.732 55.000,39.988 55.000 C 40.652 55.000,40.833 54.568,40.833 52.988 C 40.833 51.557,40.848 51.500,41.208 51.497 C 42.016 51.492,42.008 51.553,41.961 46.072 L 41.917 40.917 41.375 40.864 L 40.833 40.812 40.833 39.760 C 40.833 38.134,40.689 37.646,40.149 37.442 C 39.800 37.311,39.670 37.139,39.633 36.758 C 39.590 36.323,39.508 36.243,39.058 36.199 C 38.097 36.106,38.131 33.667,39.093 33.667 C 39.637 33.667,39.667 33.637,39.667 33.083 C 39.667 32.586,39.723 32.500,40.050 32.500 C 40.681 32.500,40.833 32.186,40.833 30.883 C 40.833 29.629,41.022 29.219,41.723 28.950 C 41.980 28.851,42.001 28.397,41.961 23.713 L 41.917 18.583 41.375 18.424 C 40.838 18.266,40.833 18.256,40.833 17.207 C 40.833 16.045,40.525 15.250,40.011 15.087 C 39.780 15.014,39.671 14.805,39.635 14.367 C 39.588 13.805,39.535 13.745,39.042 13.698 C 38.546 13.650,38.500 13.597,38.500 13.073 C 38.500 12.529,38.470 12.500,37.917 12.500 C 37.363 12.500,37.333 12.471,37.333 11.928 C 37.333 11.502,37.248 11.329,37.000 11.250 C 36.816 11.192,36.470 10.887,36.230 10.572 C 35.915 10.159,35.663 10.000,35.324 10.000 C 34.916 10.000,34.848 9.929,34.802 9.458 C 34.755 8.967,34.694 8.912,34.141 8.866 C 33.662 8.826,33.511 8.731,33.433 8.424 C 33.306 7.916,32.579 7.667,31.225 7.667 C 30.211 7.667,30.167 7.649,30.167 7.256 C 30.167 7.020,30.029 6.771,29.844 6.673 C 29.484 6.480,2.136 6.419,1.944 6.611 M54.099 6.758 C 53.953 6.904,53.833 7.164,53.833 7.335 C 53.833 7.564,53.691 7.659,53.292 7.698 C 52.821 7.743,52.743 7.818,52.699 8.270 C 52.658 8.694,52.550 8.818,52.116 8.943 L 51.583 9.096 51.538 34.590 C 51.488 62.339,51.452 60.833,52.170 60.833 C 52.624 60.833,52.667 60.882,52.667 61.399 C 52.667 61.994,52.874 62.167,53.586 62.167 C 53.837 62.167,54.017 62.292,54.088 62.515 C 54.438 63.618,60.677 63.719,60.803 62.624 C 60.844 62.270,60.944 62.167,61.247 62.167 C 61.917 62.167,62.167 61.987,62.167 61.506 C 62.167 61.132,62.266 61.020,62.708 60.893 L 63.250 60.738 63.292 34.921 C 63.326 14.377,63.292 9.077,63.126 8.971 C 63.011 8.898,62.753 8.837,62.552 8.836 C 62.264 8.834,62.177 8.721,62.136 8.292 C 62.090 7.821,62.016 7.743,61.563 7.699 C 61.139 7.658,61.015 7.550,60.890 7.116 L 60.738 6.583 57.551 6.538 C 54.818 6.499,54.326 6.531,54.099 6.758 M76.537 6.697 C 76.425 6.808,76.333 7.068,76.333 7.273 C 76.333 7.572,76.226 7.656,75.792 7.698 C 75.318 7.743,75.244 7.816,75.199 8.282 C 75.154 8.745,75.078 8.820,74.615 8.865 C 74.132 8.912,74.079 8.974,74.032 9.542 C 73.987 10.076,73.922 10.167,73.579 10.167 C 72.906 10.167,72.822 10.604,72.871 13.871 L 72.917 16.917 73.458 17.076 C 73.905 17.208,74.000 17.319,74.000 17.709 C 74.000 18.754,74.763 19.500,75.831 19.500 C 76.252 19.500,76.319 19.568,76.364 20.042 L 76.417 20.583 79.866 20.628 L 83.316 20.673 83.902 20.087 C 84.318 19.671,84.638 19.500,84.999 19.500 C 85.557 19.500,85.833 19.063,85.833 18.182 C 85.833 17.714,86.169 17.305,86.712 17.113 C 86.983 17.016,87.003 16.735,86.962 13.635 L 86.917 10.262 86.375 10.107 C 85.985 9.995,85.833 9.853,85.832 9.601 C 85.829 8.255,85.215 7.671,83.802 7.668 C 83.419 7.667,83.347 7.588,83.302 7.125 L 83.250 6.583 79.995 6.538 C 77.604 6.505,76.686 6.547,76.537 6.697 M99.285 6.616 C 99.120 6.659,98.944 6.907,98.891 7.171 C 98.813 7.559,98.697 7.658,98.273 7.699 C 97.816 7.744,97.740 7.823,97.667 8.332 C 97.596 8.823,97.505 8.928,97.083 9.000 L 96.583 9.087 96.583 12.502 L 96.583 15.917 97.125 15.969 C 97.621 16.017,97.667 16.070,97.667 16.594 C 97.667 17.137,97.696 17.167,98.250 17.167 C 98.806 17.167,98.833 17.194,98.833 17.750 L 98.833 18.333 105.333 18.333 L 111.833 18.333 111.833 38.892 C 111.833 60.610,111.825 60.378,112.604 60.674 C 112.859 60.772,113.001 60.960,113.003 61.204 C 113.007 61.819,113.235 62.014,114.097 62.137 C 114.772 62.233,114.970 62.345,115.248 62.787 L 115.583 63.320 118.000 63.325 C 120.891 63.330,121.101 63.287,121.226 62.663 C 121.304 62.272,121.417 62.179,121.869 62.136 C 122.352 62.090,122.423 62.019,122.469 61.542 C 122.507 61.144,122.603 61.000,122.830 61.000 C 123.729 61.000,123.667 62.609,123.667 39.566 L 123.667 18.333 130.550 18.333 C 137.839 18.333,137.833 18.334,137.833 17.550 C 137.833 17.283,137.931 17.167,138.153 17.167 C 138.954 17.167,139.000 17.061,139.000 15.232 C 139.000 13.536,139.008 13.500,139.383 13.500 C 139.918 13.500,140.167 13.195,140.167 12.539 C 140.167 11.759,139.900 11.333,139.411 11.333 C 139.011 11.333,139.000 11.301,139.000 10.083 C 139.000 9.083,138.950 8.833,138.750 8.833 C 138.427 8.833,137.833 8.240,137.833 7.917 C 137.833 7.743,137.659 7.667,137.261 7.667 C 136.736 7.667,136.683 7.621,136.636 7.125 L 136.583 6.583 118.083 6.561 C 107.908 6.548,99.449 6.573,99.285 6.616 M149.768 6.764 C 149.712 6.909,149.667 7.171,149.667 7.347 C 149.667 7.595,149.548 7.667,149.135 7.667 C 148.126 7.667,147.333 8.774,147.333 10.181 C 147.333 11.295,147.320 11.333,146.923 11.333 C 146.460 11.333,146.167 11.754,146.167 12.417 C 146.167 13.080,146.460 13.500,146.923 13.500 C 147.331 13.500,147.333 13.508,147.333 15.133 C 147.333 16.860,147.449 17.167,148.099 17.167 C 148.358 17.167,148.497 17.299,148.578 17.623 C 148.759 18.343,148.502 18.328,160.625 18.331 L 172.167 18.333 172.167 18.906 C 172.167 19.430,172.121 19.483,171.625 19.531 C 171.149 19.577,171.077 19.649,171.031 20.123 C 170.988 20.572,170.890 20.685,170.448 20.799 C 169.958 20.925,169.910 21.000,169.833 21.757 C 169.762 22.459,169.672 22.628,169.215 22.914 C 168.794 23.178,168.678 23.366,168.673 23.792 C 168.667 24.298,168.629 24.333,168.083 24.333 C 167.531 24.333,167.500 24.363,167.500 24.900 C 167.500 25.374,167.422 25.495,167.024 25.633 C 166.533 25.805,166.333 26.301,166.333 27.354 C 166.333 27.791,166.281 27.833,165.750 27.833 C 165.194 27.833,165.167 27.861,165.167 28.417 C 165.167 28.920,165.112 29.000,164.770 29.000 C 164.222 29.000,164.059 29.265,163.925 30.375 C 163.815 31.288,163.787 31.333,163.339 31.333 C 162.866 31.333,162.667 31.579,162.667 32.162 C 162.667 32.352,162.497 32.506,162.210 32.578 C 161.681 32.711,161.506 32.931,161.503 33.467 C 161.501 33.677,161.237 34.120,160.917 34.450 C 160.490 34.889,160.333 35.198,160.333 35.598 C 160.333 36.094,160.282 36.150,159.792 36.198 C 159.320 36.243,159.243 36.318,159.199 36.773 C 159.158 37.195,159.058 37.313,158.679 37.389 C 158.155 37.494,158.006 37.839,158.002 38.958 C 158.000 39.656,157.991 39.667,157.417 39.667 C 156.861 39.667,156.833 39.694,156.833 40.250 C 156.833 40.714,156.768 40.833,156.514 40.833 C 155.830 40.833,155.667 41.014,155.667 41.768 C 155.667 42.533,155.251 43.167,154.750 43.167 C 154.575 43.167,154.500 43.343,154.500 43.750 C 154.500 44.214,154.435 44.333,154.180 44.333 C 153.556 44.333,153.333 44.525,153.333 45.065 C 153.333 45.496,153.244 45.627,152.847 45.777 C 152.354 45.963,152.003 46.730,152.001 47.625 C 152.000 47.927,151.906 48.000,151.518 48.000 C 151.030 48.000,150.833 48.241,150.833 48.836 C 150.833 49.047,150.691 49.161,150.382 49.197 C 149.876 49.256,149.711 49.630,149.683 50.781 C 149.668 51.442,149.638 51.482,149.125 51.531 C 148.649 51.577,148.577 51.649,148.531 52.125 C 148.489 52.559,148.405 52.667,148.106 52.667 C 147.501 52.667,147.333 52.990,147.333 54.160 C 147.333 55.086,147.280 55.286,146.988 55.469 C 145.949 56.118,145.898 58.500,146.923 58.500 C 147.319 58.500,147.333 58.539,147.333 59.649 C 147.333 60.845,147.429 61.000,148.170 61.000 C 148.397 61.000,148.493 61.144,148.531 61.542 C 148.577 62.014,148.650 62.090,149.109 62.134 C 149.521 62.174,149.660 62.282,149.748 62.633 C 149.927 63.347,149.443 63.328,168.115 63.331 C 187.637 63.334,187.167 63.357,187.167 62.400 C 187.167 62.248,187.356 62.166,187.708 62.164 C 188.430 62.161,188.626 62.012,188.693 61.416 C 188.735 61.052,188.849 60.903,189.113 60.865 C 190.245 60.704,190.449 54.018,189.327 53.858 C 188.852 53.790,188.673 53.568,188.669 53.042 C 188.667 52.725,188.576 52.667,188.083 52.667 C 187.528 52.667,187.500 52.639,187.500 52.083 L 187.500 51.500 176.250 51.500 L 165.000 51.500 165.000 50.935 C 165.000 50.426,165.055 50.360,165.562 50.265 C 166.050 50.173,166.137 50.081,166.221 49.565 C 166.274 49.237,166.490 48.796,166.700 48.584 C 167.381 47.899,167.500 47.690,167.500 47.184 C 167.500 46.746,167.563 46.682,168.042 46.636 C 168.518 46.590,168.590 46.518,168.636 46.042 C 168.675 45.631,168.784 45.477,169.091 45.400 C 169.513 45.294,169.831 44.539,169.832 43.636 C 169.833 43.252,169.912 43.180,170.375 43.136 C 170.848 43.090,170.923 43.016,170.968 42.557 C 171.008 42.145,171.116 42.007,171.466 41.919 C 172.062 41.770,172.161 41.575,172.164 40.552 C 172.167 39.699,172.174 39.687,172.708 39.636 C 173.179 39.590,173.257 39.516,173.301 39.063 C 173.342 38.639,173.450 38.515,173.884 38.391 C 174.401 38.243,174.418 38.209,174.466 37.209 C 174.516 36.179,174.516 36.179,175.091 36.071 C 175.613 35.973,175.667 35.910,175.667 35.398 C 175.667 34.864,175.698 34.833,176.250 34.833 C 176.806 34.833,176.833 34.806,176.833 34.250 C 176.833 33.795,176.980 33.516,177.500 32.980 C 177.964 32.502,178.167 32.148,178.167 31.813 C 178.167 31.395,178.229 31.333,178.649 31.333 C 179.158 31.333,179.333 31.095,179.333 30.403 C 179.333 30.086,179.421 30.000,179.742 30.000 C 180.177 30.000,180.497 29.281,180.499 28.302 C 180.500 27.919,180.578 27.847,181.042 27.802 C 181.536 27.755,181.588 27.696,181.635 27.125 C 181.682 26.559,181.732 26.500,182.169 26.500 C 182.682 26.500,182.764 26.306,182.873 24.833 C 182.912 24.308,182.970 24.245,183.458 24.198 C 183.952 24.150,184.000 24.096,184.000 23.583 C 184.000 23.071,184.048 23.016,184.542 22.969 L 185.083 22.917 185.133 21.792 L 185.182 20.667 185.758 20.667 C 186.302 20.667,186.333 20.636,186.333 20.094 C 186.333 19.570,186.379 19.517,186.875 19.469 C 187.362 19.422,187.422 19.358,187.466 18.832 C 187.503 18.393,187.633 18.180,187.986 17.977 C 188.342 17.773,188.507 17.499,188.662 16.853 C 188.838 16.118,188.922 16.000,189.271 16.000 C 189.877 16.000,190.001 15.443,189.990 12.781 C 189.977 9.579,189.885 9.110,189.247 9.000 C 188.829 8.928,188.737 8.822,188.667 8.332 C 188.593 7.818,188.520 7.744,188.042 7.698 C 187.591 7.654,187.500 7.576,187.500 7.235 C 187.500 6.948,187.372 6.776,187.072 6.663 C 186.255 6.352,149.888 6.450,149.768 6.764 M200.333 6.622 C 199.782 6.723,199.500 6.971,199.500 7.354 C 199.500 7.566,199.380 7.667,199.125 7.669 C 198.566 7.673,198.394 7.850,198.265 8.550 C 198.201 8.899,198.041 9.225,197.911 9.275 C 196.621 9.770,196.566 16.155,197.846 16.840 C 198.105 16.979,198.167 17.195,198.167 17.959 C 198.167 19.058,198.581 20.284,198.997 20.416 C 199.219 20.486,199.311 20.771,199.392 21.641 C 199.535 23.182,199.775 23.812,200.267 23.936 C 200.648 24.031,200.667 24.101,200.669 25.393 C 200.672 26.900,200.904 27.556,201.463 27.637 C 201.809 27.686,201.833 27.775,201.836 28.970 C 201.839 30.402,202.079 31.058,202.629 31.137 C 202.971 31.186,203.000 31.279,203.000 32.324 C 203.000 34.047,203.133 34.506,203.691 34.700 C 204.146 34.859,204.167 34.911,204.167 35.912 C 204.167 37.522,204.312 38.021,204.840 38.220 C 205.280 38.386,205.298 38.442,205.365 39.848 C 205.437 41.363,205.632 41.833,206.187 41.833 C 206.463 41.833,206.502 41.977,206.517 43.042 C 206.538 44.603,206.668 45.037,207.192 45.290 C 207.594 45.483,207.625 45.588,207.706 46.997 C 207.793 48.527,207.980 49.000,208.497 49.000 C 208.745 49.000,208.800 49.219,208.873 50.499 C 208.960 52.026,209.147 52.500,209.662 52.500 C 209.906 52.500,209.965 52.724,210.046 53.958 C 210.161 55.702,210.240 55.940,210.744 56.067 C 211.101 56.157,211.140 56.280,211.250 57.672 C 211.374 59.238,211.574 59.667,212.179 59.667 C 212.438 59.667,212.501 59.788,212.506 60.292 C 212.516 61.413,213.259 62.167,214.352 62.167 C 214.775 62.167,214.833 62.227,214.833 62.663 C 214.833 63.320,215.019 63.356,218.083 63.298 L 220.583 63.250 220.636 62.708 C 220.681 62.238,220.749 62.167,221.158 62.167 C 222.241 62.167,222.984 61.408,222.994 60.292 C 223.000 59.695,223.025 59.667,223.559 59.667 L 224.118 59.667 224.225 58.542 C 224.283 57.923,224.331 57.140,224.332 56.803 C 224.333 56.258,224.385 56.183,224.791 56.136 C 225.335 56.073,225.451 55.695,225.480 53.875 C 225.499 52.699,225.511 52.667,225.921 52.667 C 226.494 52.667,226.667 52.143,226.667 50.406 L 226.667 49.000 227.149 49.000 C 227.767 49.000,227.833 48.806,227.833 46.986 L 227.833 45.500 228.316 45.500 C 228.934 45.500,229.000 45.306,229.000 43.486 C 229.000 42.046,229.012 42.000,229.383 42.000 C 230.044 42.000,230.167 41.699,230.167 40.074 L 230.167 38.548 230.708 38.393 L 231.250 38.238 231.297 36.536 L 231.345 34.833 231.806 34.833 C 232.059 34.833,232.357 34.743,232.467 34.633 C 232.622 34.478,232.667 34.478,232.667 34.633 C 232.667 34.744,232.889 34.833,233.167 34.833 L 233.667 34.833 233.667 36.239 C 233.667 37.951,233.842 38.500,234.389 38.500 C 234.810 38.500,235.000 39.361,235.000 41.274 C 235.000 41.766,235.071 42.000,235.221 42.000 C 235.841 42.000,236.167 42.734,236.167 44.130 C 236.167 45.461,236.179 45.501,236.750 46.072 C 237.305 46.627,237.333 46.712,237.333 47.816 C 237.333 48.913,237.365 49.010,237.917 49.595 C 238.467 50.179,238.500 50.278,238.500 51.365 C 238.500 52.630,238.793 53.412,239.332 53.583 C 239.624 53.676,239.669 53.841,239.683 54.886 C 239.705 56.450,239.836 56.871,240.382 57.134 C 240.803 57.337,240.834 57.426,240.850 58.467 C 240.872 59.949,241.009 60.374,241.549 60.634 C 241.834 60.772,242.001 60.986,242.003 61.217 C 242.007 61.880,242.262 62.057,243.320 62.133 C 244.228 62.199,244.333 62.245,244.333 62.570 C 244.333 63.257,244.607 63.333,247.075 63.331 C 249.890 63.328,250.102 63.283,250.226 62.663 C 250.304 62.272,250.417 62.179,250.869 62.136 C 251.351 62.090,251.423 62.019,251.468 61.547 C 251.513 61.083,251.597 60.997,252.093 60.904 L 252.667 60.796 252.672 59.440 C 252.678 58.016,252.969 57.333,253.568 57.333 C 253.790 57.333,253.833 57.100,253.833 55.917 C 253.833 54.443,254.102 53.833,254.750 53.833 C 254.951 53.833,255.000 53.575,255.000 52.511 C 255.000 51.399,255.046 51.174,255.292 51.095 C 255.819 50.925,256.167 50.051,256.167 48.898 C 256.167 47.891,256.204 47.785,256.750 47.239 C 257.319 46.670,257.333 46.623,257.333 45.328 C 257.333 44.287,257.385 44.000,257.572 44.000 C 258.119 44.000,258.500 43.088,258.500 41.777 C 258.500 40.688,258.542 40.509,258.818 40.421 C 259.376 40.245,259.690 39.532,259.789 38.220 C 259.850 37.420,259.962 36.940,260.101 36.887 C 260.594 36.698,261.000 35.664,261.000 34.597 C 261.000 33.625,261.044 33.500,261.583 32.928 C 262.132 32.346,262.167 32.242,262.167 31.178 C 262.167 30.114,262.201 30.010,262.750 29.428 C 263.302 28.843,263.333 28.746,263.333 27.649 C 263.333 26.545,263.362 26.461,263.917 25.906 C 264.478 25.345,264.500 25.275,264.500 24.097 C 264.500 22.974,264.535 22.849,264.917 22.599 C 265.146 22.449,265.333 22.215,265.333 22.079 C 265.333 21.944,265.408 21.833,265.500 21.833 C 265.596 21.833,265.667 21.309,265.667 20.595 C 265.667 19.500,265.706 19.343,266.002 19.249 C 266.574 19.068,266.833 18.303,266.833 16.795 C 266.833 15.357,266.956 15.078,267.716 14.786 C 267.957 14.693,268.000 14.428,268.000 13.011 L 268.000 11.344 267.428 10.772 C 267.012 10.356,266.841 10.025,266.803 9.558 C 266.755 8.972,266.704 8.912,266.218 8.865 C 265.755 8.820,265.680 8.745,265.635 8.282 C 265.590 7.816,265.516 7.743,265.042 7.698 C 264.643 7.659,264.500 7.564,264.500 7.335 C 264.500 6.581,264.136 6.489,261.359 6.538 L 258.750 6.583 258.698 7.125 C 258.652 7.604,258.588 7.667,258.148 7.667 C 257.064 7.667,256.167 8.584,256.167 9.692 C 256.167 10.088,256.097 10.167,255.746 10.167 C 255.179 10.167,255.000 10.690,255.000 12.344 C 255.000 13.647,254.994 13.667,254.579 13.667 C 254.012 13.667,253.833 14.190,253.833 15.844 C 253.833 17.039,253.802 17.167,253.512 17.167 C 252.839 17.167,252.667 17.594,252.667 19.262 C 252.667 20.821,252.663 20.833,252.256 20.833 C 251.664 20.833,251.500 21.283,251.500 22.906 C 251.500 24.284,251.487 24.333,251.117 24.333 C 250.457 24.333,250.333 24.635,250.333 26.249 L 250.333 27.764 249.792 27.924 L 249.250 28.083 249.203 29.792 C 249.157 31.442,249.142 31.500,248.778 31.500 C 248.121 31.500,248.000 31.803,248.000 33.450 C 248.000 34.971,247.993 35.000,247.604 35.000 C 247.006 35.000,246.855 35.312,246.791 36.674 L 246.733 37.917 246.700 36.458 L 246.667 35.000 246.083 35.000 L 245.500 35.000 245.500 33.245 C 245.500 31.757,245.457 31.473,245.221 31.383 C 244.494 31.104,244.333 30.718,244.333 29.250 C 244.333 28.185,244.279 27.833,244.112 27.833 C 243.492 27.833,243.167 27.099,243.167 25.698 C 243.167 24.899,243.098 24.333,243.000 24.333 C 242.908 24.333,242.833 24.223,242.833 24.087 C 242.833 23.952,242.646 23.718,242.417 23.568 C 242.040 23.322,242.000 23.186,242.000 22.172 C 242.000 20.805,241.749 20.023,241.251 19.834 C 240.908 19.703,240.869 19.561,240.804 18.194 C 240.729 16.636,240.538 16.167,239.980 16.167 C 239.707 16.167,239.666 16.032,239.665 15.125 C 239.662 13.348,239.514 12.810,238.974 12.606 C 238.524 12.436,238.500 12.375,238.500 11.405 C 238.500 10.075,238.248 9.384,237.649 9.074 C 237.288 8.887,237.167 8.705,237.167 8.348 C 237.167 7.800,236.877 7.673,235.625 7.669 L 234.833 7.667 234.833 7.083 L 234.833 6.500 232.239 6.500 C 229.463 6.500,229.000 6.606,229.000 7.245 C 229.000 7.575,228.905 7.655,228.458 7.698 C 227.982 7.744,227.910 7.815,227.864 8.292 C 227.826 8.689,227.730 8.833,227.503 8.833 C 226.762 8.833,226.667 8.988,226.667 10.190 C 226.667 11.287,226.638 11.373,226.083 11.928 C 225.510 12.501,225.500 12.536,225.500 13.893 C 225.500 15.298,225.177 16.000,224.531 16.000 C 224.394 16.000,224.333 16.439,224.333 17.432 C 224.333 18.896,224.064 19.476,223.375 19.494 C 223.242 19.498,223.166 19.756,223.165 20.208 C 223.162 22.360,222.979 23.167,222.495 23.167 C 221.926 23.167,221.839 23.449,221.836 25.292 L 221.833 26.667 221.351 26.667 C 220.733 26.667,220.667 26.861,220.667 28.680 L 220.667 30.167 220.184 30.167 C 219.567 30.167,219.500 30.362,219.500 32.156 L 219.500 33.618 218.958 33.773 L 218.417 33.928 218.324 35.506 C 218.272 36.373,218.216 36.913,218.199 36.704 C 218.175 36.427,218.032 36.298,217.667 36.225 L 217.167 36.125 217.150 34.854 C 217.127 33.127,217.009 32.762,216.452 32.697 C 216.015 32.646,216.000 32.610,215.998 31.614 C 215.995 29.845,215.850 29.322,215.309 29.133 C 214.867 28.979,214.833 28.905,214.833 28.090 C 214.833 26.261,214.670 25.659,214.143 25.554 C 213.683 25.462,213.666 25.424,213.657 24.438 C 213.640 22.666,213.478 22.091,212.978 22.033 C 212.553 21.983,212.541 21.946,212.397 20.288 L 212.250 18.594 211.708 18.440 L 211.167 18.285 211.167 16.759 C 211.167 15.137,211.044 14.833,210.389 14.833 C 210.025 14.833,210.010 14.775,209.964 13.125 L 209.917 11.417 209.375 11.364 L 208.833 11.312 208.833 10.174 C 208.833 8.989,208.736 8.833,207.997 8.833 C 207.770 8.833,207.674 8.689,207.636 8.292 C 207.590 7.815,207.518 7.744,207.042 7.698 C 206.643 7.659,206.500 7.564,206.500 7.335 C 206.500 6.573,202.878 6.154,200.333 6.622 M345.833 6.647 C 345.604 6.711,345.319 6.967,345.199 7.215 C 345.078 7.467,344.844 7.667,344.671 7.667 C 344.044 7.667,343.833 7.859,343.833 8.431 C 343.833 8.888,343.757 9.013,343.428 9.095 C 342.655 9.289,342.667 8.907,342.667 34.930 L 342.667 59.643 343.250 60.261 C 343.639 60.674,343.833 61.040,343.833 61.361 C 343.833 61.932,344.295 62.167,345.417 62.167 C 346.117 62.167,346.148 62.188,346.198 62.708 L 346.250 63.250 348.542 63.296 C 351.312 63.352,351.896 63.238,351.968 62.625 C 352.011 62.267,352.118 62.177,352.552 62.135 C 353.016 62.090,353.090 62.015,353.135 61.547 C 353.180 61.086,353.265 60.997,353.745 60.907 C 354.542 60.757,354.495 62.379,354.498 34.886 C 354.500 8.113,354.523 8.833,353.671 8.833 C 353.206 8.833,353.167 8.788,353.167 8.250 C 353.167 7.696,353.137 7.667,352.594 7.667 C 352.070 7.667,352.017 7.621,351.969 7.125 L 351.917 6.583 349.083 6.556 C 347.525 6.542,346.063 6.582,345.833 6.647 M367.500 6.639 C 367.500 6.716,367.313 6.865,367.083 6.970 C 366.854 7.074,366.667 7.274,366.667 7.413 C 366.667 7.564,366.515 7.668,366.292 7.669 C 365.343 7.675,365.167 7.827,365.166 8.644 C 365.165 9.336,365.105 9.457,364.594 9.805 C 363.783 10.357,363.809 9.421,363.866 35.833 C 363.921 61.615,363.869 60.277,364.832 60.583 C 365.090 60.665,365.167 60.834,365.167 61.324 C 365.167 62.024,365.451 62.167,366.844 62.167 C 367.439 62.167,367.482 62.201,367.531 62.708 L 367.583 63.250 370.128 63.296 C 372.876 63.346,373.333 63.245,373.333 62.588 C 373.333 62.258,373.429 62.179,373.875 62.136 C 374.351 62.090,374.423 62.018,374.469 61.542 C 374.507 61.144,374.603 61.000,374.830 61.000 C 375.717 61.000,375.667 61.609,375.667 50.816 L 375.667 40.833 386.708 40.831 C 398.994 40.829,398.960 40.831,399.200 40.142 C 399.304 39.844,399.484 39.667,399.683 39.667 C 399.987 39.667,400.000 39.476,400.000 35.019 L 400.000 30.370 399.458 30.263 C 398.814 30.135,398.167 29.635,398.167 29.265 C 398.167 29.025,397.088 29.000,386.917 29.000 L 375.667 29.000 375.667 23.667 L 375.667 18.333 387.300 18.333 C 399.634 18.333,399.333 18.353,399.333 17.550 C 399.333 17.278,399.430 17.167,399.667 17.167 C 399.992 17.167,400.000 17.056,400.000 12.750 C 400.000 8.444,399.992 8.333,399.667 8.333 C 399.444 8.333,399.333 8.222,399.333 8.000 C 399.333 7.731,399.222 7.667,398.761 7.667 C 398.236 7.667,398.183 7.621,398.136 7.125 L 398.083 6.583 382.792 6.541 C 374.381 6.517,367.500 6.562,367.500 6.639 M285.242 11.909 C 284.998 12.154,284.846 12.401,284.904 12.460 C 284.962 12.518,285.210 12.366,285.455 12.121 C 285.699 11.877,285.851 11.629,285.793 11.571 C 285.735 11.512,285.487 11.665,285.242 11.909 M325.296 11.759 C 325.500 11.902,325.673 12.146,325.680 12.301 C 325.689 12.490,325.722 12.511,325.780 12.365 C 325.876 12.126,325.387 11.500,325.104 11.500 C 325.006 11.500,325.093 11.617,325.296 11.759 M283.929 12.929 C 283.785 13.073,283.669 13.279,283.672 13.387 C 283.675 13.495,283.752 13.454,283.844 13.297 C 283.936 13.139,284.139 12.936,284.297 12.844 C 284.454 12.752,284.495 12.675,284.387 12.672 C 284.279 12.669,284.073 12.785,283.929 12.929 M326.463 12.926 C 326.667 13.069,326.839 13.313,326.846 13.468 C 326.855 13.656,326.889 13.678,326.947 13.532 C 327.043 13.293,326.554 12.667,326.270 12.667 C 326.173 12.667,326.259 12.783,326.463 12.926 M282.762 14.095 C 282.618 14.239,282.502 14.446,282.505 14.554 C 282.508 14.662,282.585 14.621,282.677 14.464 C 282.769 14.306,282.973 14.102,283.130 14.010 C 283.288 13.919,283.328 13.841,283.220 13.838 C 283.112 13.836,282.906 13.951,282.762 14.095 M327.714 14.217 C 327.917 14.428,328.114 14.578,328.152 14.551 C 328.249 14.481,327.643 13.833,327.480 13.833 C 327.406 13.833,327.511 14.006,327.714 14.217 M25.531 18.875 L 25.583 19.417 26.708 19.466 L 27.833 19.515 27.833 20.091 C 27.833 20.638,27.863 20.667,28.417 20.667 C 28.968 20.667,29.000 20.697,29.000 21.229 C 29.000 22.398,29.179 22.844,29.689 22.946 C 30.586 23.126,30.192 25.500,29.265 25.500 C 29.074 25.500,29.000 25.660,29.000 26.073 C 29.000 26.597,28.954 26.650,28.458 26.698 C 27.982 26.744,27.910 26.815,27.864 27.292 C 27.817 27.788,27.764 27.833,27.239 27.833 C 26.924 27.833,26.667 27.900,26.667 27.981 C 26.667 28.062,26.511 28.168,26.321 28.218 C 26.131 28.268,25.935 28.464,25.885 28.654 C 25.795 28.997,25.742 29.000,18.481 29.000 L 11.167 29.000 11.167 23.667 L 11.167 18.333 18.323 18.333 L 25.479 18.333 25.531 18.875 M279.263 19.032 C 279.123 19.232,279.043 19.432,279.086 19.475 C 279.186 19.575,279.833 18.996,279.833 18.808 C 279.833 18.543,279.519 18.666,279.263 19.032 M278.292 21.186 C 277.857 21.430,277.532 22.084,277.959 21.855 C 278.324 21.660,278.747 21.191,278.647 21.092 C 278.611 21.055,278.451 21.098,278.292 21.186 M332.037 21.194 C 332.072 21.301,332.356 21.582,332.666 21.819 L 333.231 22.250 332.840 21.716 C 332.445 21.176,331.917 20.833,332.037 21.194 M77.381 23.123 C 76.538 23.182,76.509 23.201,76.404 23.759 C 76.306 24.280,76.243 24.333,75.731 24.333 C 75.201 24.333,75.167 24.368,75.167 24.896 C 75.167 25.382,75.102 25.471,74.688 25.554 C 73.981 25.695,74.005 25.096,74.002 42.938 C 74.000 60.829,73.986 60.461,74.692 60.727 C 75.055 60.864,75.167 61.014,75.167 61.364 C 75.167 61.845,75.554 62.167,76.132 62.167 C 76.309 62.167,76.740 62.437,77.090 62.767 L 77.727 63.368 80.254 63.309 C 82.898 63.247,83.333 63.130,83.333 62.480 C 83.333 62.246,83.455 62.167,83.813 62.167 C 84.361 62.167,84.610 61.931,84.692 61.333 C 84.733 61.036,84.869 60.900,85.167 60.858 C 85.841 60.764,85.828 61.114,85.831 43.222 C 85.834 24.772,85.861 25.500,85.159 25.500 C 84.749 25.500,84.681 25.430,84.636 24.958 C 84.588 24.464,84.529 24.412,83.958 24.365 C 83.373 24.317,83.333 24.278,83.333 23.764 L 83.333 23.216 82.058 23.108 C 80.790 23.001,79.041 23.006,77.381 23.123 M25.500 41.417 L 25.500 42.000 26.667 42.000 L 27.833 42.000 27.833 42.583 C 27.833 43.139,27.861 43.167,28.417 43.167 L 29.000 43.167 29.000 44.011 C 29.000 45.063,29.222 45.500,29.756 45.500 C 30.156 45.500,30.167 45.533,30.167 46.750 L 30.167 48.000 29.583 48.000 C 29.030 48.000,29.000 48.029,29.000 48.573 C 29.000 49.097,28.954 49.150,28.458 49.198 C 27.982 49.244,27.910 49.315,27.864 49.792 C 27.817 50.288,27.764 50.333,27.239 50.333 C 26.696 50.333,26.667 50.363,26.667 50.917 L 26.667 51.500 18.917 51.500 L 11.167 51.500 11.167 46.167 L 11.167 40.833 18.333 40.833 L 25.500 40.833 25.500 41.417 M330.000 52.138 C 329.623 52.506,329.618 52.527,329.949 52.355 C 330.150 52.250,330.364 52.085,330.424 51.988 C 330.629 51.656,330.417 51.731,330.000 52.138 " stroke="none" fill="#040404" fill-rule="evenodd"></path><path id="path2" d="M324.833 11.954 C 324.833 12.163,325.310 12.579,325.422 12.467 C 325.466 12.423,325.352 12.251,325.168 12.084 C 324.984 11.918,324.833 11.859,324.833 11.954 M284.251 13.332 C 284.085 13.516,284.026 13.667,284.120 13.667 C 284.330 13.667,284.746 13.190,284.634 13.078 C 284.590 13.034,284.417 13.148,284.251 13.332 M326.000 13.120 C 326.000 13.330,326.476 13.746,326.588 13.634 C 326.633 13.590,326.518 13.417,326.334 13.251 C 326.150 13.085,326.000 13.026,326.000 13.120 M283.084 14.499 C 282.918 14.683,282.859 14.833,282.954 14.833 C 283.163 14.833,283.579 14.357,283.467 14.245 C 283.423 14.201,283.251 14.315,283.084 14.499 M327.167 14.287 C 327.167 14.497,327.643 14.912,327.755 14.801 C 327.799 14.756,327.685 14.584,327.501 14.418 C 327.317 14.251,327.167 14.192,327.167 14.287 M318.161 23.288 C 318.260 23.492,318.508 23.740,318.712 23.839 C 319.057 24.006,319.062 24.001,318.778 23.773 C 318.610 23.637,318.363 23.390,318.227 23.222 C 317.999 22.938,317.994 22.943,318.161 23.288 M290.827 24.590 C 290.536 24.942,290.890 25.344,291.208 25.023 C 291.375 24.855,291.359 24.836,291.125 24.925 C 290.790 25.052,290.738 24.829,291.033 24.533 C 291.143 24.423,291.190 24.333,291.137 24.333 C 291.084 24.333,290.945 24.449,290.827 24.590 M280.665 51.748 C 280.778 51.885,280.946 51.950,281.037 51.894 C 281.137 51.832,281.113 51.735,280.976 51.648 C 280.617 51.421,280.440 51.477,280.665 51.748 M329.648 51.875 C 329.453 52.248,329.453 52.248,329.809 51.933 C 330.206 51.580,330.243 51.500,330.006 51.500 C 329.917 51.500,329.757 51.669,329.648 51.875 " stroke="none" fill="#049078" fill-rule="evenodd"></path><path id="path3" d="" stroke="none" fill="#043040" fill-rule="evenodd"></path><path id="path4" d="" stroke="none" fill="#043404" fill-rule="evenodd"></path></g></svg>